<svg xmlns="http://www.w3.org/2000/svg" version="1.1" xmlns:xlink="http://www.w3.org/1999/xlink" xmlns:svgjs="http://svgjs.dev/svgjs" width="1500" height="1500" viewBox="0 0 1500 1500"><rect width="1500" height="1500" fill="#000000"></rect><g transform="matrix(0.6666666666666666,0,0,0.6666666666666666,249.39393939393938,438.5856950067477)"><svg viewBox="0 0 396 247" data-background-color="#ffffff" preserveAspectRatio="xMidYMid meet" height="935" width="1500" xmlns="http://www.w3.org/2000/svg" xmlns:xlink="http://www.w3.org/1999/xlink"><g id="tight-bounds" transform="matrix(1,0,0,1,0.2400000000000091,-0.09999999999999432)"><svg viewBox="0 0 395.52 247.2" height="247.2" width="395.52"><g><svg></svg></g><g><svg viewBox="0 0 395.52 247.2" height="247.2" width="395.52"><g transform="matrix(1,0,0,1,75.54432,73.78193599661189)"><svg viewBox="0 0 244.43135999999998 99.6361280067762" height="99.6361280067762" width="244.43135999999998"><g><svg viewBox="0 0 455.71257376115375 185.75945547070458" height="99.6361280067762" width="244.43135999999998"><g transform="matrix(1,0,0,1,210.05905696115383,64.97397349406914)"><svg viewBox="0 0 245.65351679999995 55.811508482566296" height="55.811508482566296" width="245.65351679999995"><g id="textblocktransform"><svg viewBox="0 0 245.65351679999995 55.811508482566296" height="55.811508482566296" width="245.65351679999995" id="textblock"><g><rect width="245.65351679999995" height="3.112003248498638" x="0" y="38.17437378627794" fill="#ffffff" opacity="1" stroke-width="0" stroke="transparent" fill-opacity="1" class="rect-yte-0" data-fill-palette-color="primary" rx="1%" id="yte-0" data-palette-color="#f7d64e"></rect></g><g transform="matrix(1,0,0,1,0.6110783999999825,0)"><svg viewBox="0 0 244.43135999999998 34.508401373125096" height="34.508401373125096" width="244.43135999999998"><g transform="matrix(1,0,0,1,0,0)"><svg width="244.43135999999998" viewBox="1.98 -38.57 315.75 44.58" height="34.508401373125096" data-palette-color="#f7d64e"><path d="M35.91-26.44L35.91-26.44 31.74-24.68Q31.25-26.27 30.43-27.59 29.61-28.91 28.48-29.85 27.34-30.79 25.9-31.31 24.46-31.84 22.75-31.84L22.75-31.84Q20.92-31.84 19.4-31.23 17.87-30.62 16.66-29.58 15.45-28.54 14.55-27.15 13.65-25.76 13.05-24.18 12.45-22.61 12.15-20.92 11.84-19.24 11.84-17.63L11.84-17.63Q11.84-15.06 12.44-12.52 13.04-9.99 14.34-7.96 15.65-5.93 17.72-4.68 19.8-3.42 22.75-3.42L22.75-3.42Q24.37-3.42 25.27-4.14 26.17-4.86 26.17-6.67L26.17-6.67 26.17-17.46 35.86-17.46 35.86 0 33.06 0 31.35-2.76Q29-0.98 26.18-0.13 23.36 0.71 20.43 0.71L20.43 0.71Q17.85 0.71 15.47 0.07 13.09-0.56 11.04-1.73 8.98-2.91 7.31-4.57 5.64-6.23 4.46-8.25 3.27-10.28 2.62-12.66 1.98-15.04 1.98-17.63L1.98-17.63Q1.98-20.21 2.62-22.6 3.27-24.98 4.46-27.01 5.64-29.05 7.31-30.71 8.98-32.37 11.04-33.54 13.09-34.72 15.47-35.35 17.85-35.99 20.43-35.99L20.43-35.99Q22.92-35.99 25.31-35.4 27.69-34.81 29.74-33.63 31.79-32.45 33.39-30.65 34.99-28.86 35.91-26.44ZM70.29-28.2L70.29 0 62.03 0 62.03-3.37Q60.57-1.37 58.51-0.4 56.44 0.56 53.98 0.56L53.98 0.56Q50.75 0.56 48.22-0.59 45.68-1.73 43.92-3.72 42.16-5.71 41.23-8.4 40.31-11.08 40.31-14.16L40.31-14.16Q40.31-17.24 41.23-19.92 42.16-22.61 43.92-24.6 45.68-26.59 48.22-27.73 50.75-28.88 53.98-28.88L53.98-28.88Q55.61-28.88 57.09-28.39 58.57-27.91 59.8-27.01 61.03-26.12 61.97-24.87 62.91-23.61 63.45-22.07L63.45-22.07 67.11-28.2 70.29-28.2ZM61.98-14.16L61.98-14.16Q61.98-15.26 61.87-16.48 61.77-17.7 61.5-18.9 61.23-20.09 60.75-21.18 60.28-22.27 59.53-23.11 58.79-23.95 57.74-24.44 56.69-24.93 55.3-24.93L55.3-24.93Q53.9-24.93 52.88-24.43 51.85-23.93 51.12-23.08 50.39-22.24 49.91-21.14 49.44-20.04 49.17-18.85 48.9-17.65 48.79-16.44 48.68-15.23 48.68-14.16L48.68-14.16Q48.68-13.09 48.79-11.87 48.9-10.64 49.17-9.45 49.44-8.25 49.91-7.15 50.39-6.05 51.12-5.21 51.85-4.37 52.88-3.87 53.9-3.37 55.3-3.37L55.3-3.37Q56.56-3.37 57.55-3.89 58.54-4.42 59.29-5.3 60.03-6.18 60.54-7.3 61.06-8.42 61.37-9.62 61.69-10.82 61.84-12 61.98-13.18 61.98-14.16ZM120.8-16.46L120.8-16.46Q120.8-13.55 120.11-10.4 119.43-7.25 118.2-4.26 116.96-1.27 115.23 1.39 113.5 4.05 111.37 6.01L111.37 6.01 108.27 4.32Q108.98 3.05 109.57 1.46 110.15-0.12 110.64-1.88 111.13-3.64 111.49-5.49 111.86-7.35 112.12-9.19 112.37-11.04 112.5-12.77 112.62-14.5 112.62-16.02L112.62-16.02Q112.62-16.87 112.57-17.87 112.52-18.87 112.36-19.87 112.2-20.87 111.88-21.79 111.57-22.71 111.02-23.43 110.47-24.15 109.65-24.57 108.83-25 107.69-25L107.69-25Q106.56-25 105.77-24.4 104.98-23.8 104.41-22.85 103.85-21.9 103.52-20.7 103.19-19.51 103.02-18.3 102.85-17.09 102.79-15.99 102.73-14.89 102.73-14.14L102.73-14.14 102.73 0 94.5 0 94.5-13.13Q94.5-13.99 94.53-15.2 94.55-16.41 94.47-17.72 94.38-19.04 94.15-20.35 93.92-21.66 93.42-22.68 92.91-23.71 92.06-24.35 91.21-25 89.91-25L89.91-25Q88.81-25 88.07-24.39 87.32-23.78 86.82-22.81 86.32-21.85 86.04-20.64 85.76-19.43 85.63-18.23 85.49-17.02 85.47-15.93 85.44-14.84 85.44-14.14L85.44-14.14 85.44 0 77.17 0 77.17-28.2 80.34-28.2 83.37-21.63Q84.39-25.05 86.6-26.97 88.81-28.88 92.48-28.88L92.48-28.88Q95.77-28.88 97.94-27.51 100.12-26.15 101.36-23.07L101.36-23.07Q102.07-24.41 102.94-25.49 103.8-26.56 104.87-27.32 105.93-28.08 107.22-28.48 108.52-28.88 110.08-28.88L110.08-28.88Q112.96-28.88 115-27.94 117.04-27 118.33-25.34 119.62-23.68 120.21-21.4 120.8-19.12 120.8-16.46ZM133.07-13.38L133.07-13.38Q134.59-13.04 136.1-12.84 137.61-12.65 139.15-12.65L139.15-12.65Q140.76-12.65 142.14-12.95 143.52-13.26 144.54-13.98 145.55-14.7 146.14-15.89 146.72-17.09 146.72-18.87L146.72-18.87Q146.72-20.31 146.33-21.51 145.94-22.71 145.17-23.56 144.4-24.41 143.28-24.89 142.16-25.37 140.67-25.37L140.67-25.37Q139.27-25.37 138.16-24.85 137.05-24.34 136.21-23.47 135.37-22.61 134.77-21.46 134.17-20.31 133.78-19.07 133.39-17.82 133.22-16.55 133.05-15.28 133.05-14.16L133.05-14.16Q133.05-13.96 133.05-13.77 133.05-13.57 133.07-13.38ZM153.41-18.95L153.41-18.95Q153.41-17.21 152.85-15.86 152.29-14.5 151.32-13.48 150.36-12.45 149.09-11.74 147.82-11.04 146.38-10.58 144.94-10.13 143.41-9.94 141.89-9.74 140.45-9.74L140.45-9.74Q138.62-9.74 136.83-10 135.05-10.25 133.32-10.82L133.32-10.82Q133.59-9.2 134.17-7.75 134.76-6.3 135.73-5.21 136.71-4.13 138.14-3.49 139.57-2.86 141.52-2.86L141.52-2.86Q142.81-2.86 143.99-3.25 145.16-3.64 146.14-4.35 147.11-5.05 147.86-6.03 148.6-7.01 149.06-8.2L149.06-8.2 152.63-6.88Q151.82-4.96 150.42-3.55 149.02-2.15 147.25-1.23 145.48-0.32 143.49 0.12 141.5 0.56 139.54 0.56L139.54 0.56Q136.32 0.56 133.59-0.52 130.85-1.61 128.87-3.56 126.9-5.52 125.77-8.23 124.65-10.94 124.65-14.16L124.65-14.16Q124.65-17.38 125.77-20.09 126.9-22.8 128.87-24.76 130.85-26.71 133.59-27.8 136.32-28.88 139.54-28.88L139.54-28.88Q141.11-28.88 142.74-28.66 144.38-28.44 145.92-27.97 147.45-27.49 148.82-26.73 150.19-25.98 151.2-24.87 152.21-23.75 152.81-22.29 153.41-20.83 153.41-18.95ZM202.06-10.74L202.06-10.74Q202.06-8.47 201.49-6.74 200.92-5 199.88-3.74 198.84-2.47 197.42-1.61 196.01-0.76 194.34-0.24 192.66 0.27 190.8 0.49 188.93 0.71 187 0.71L187 0.71Q184.46 0.71 182.31 0.33 180.16-0.05 178.27-0.87 176.38-1.68 174.63-2.98 172.89-4.27 171.15-6.13L171.15-6.13 176.13-11.18Q176.82-9.5 178.01-8.07 179.21-6.64 180.64-5.62 182.07-4.59 183.61-4 185.14-3.42 186.51-3.42L186.51-3.42Q188.12-3.42 189.54-3.65 190.95-3.88 192-4.42 193.05-4.96 193.65-5.85 194.25-6.74 194.25-8.08L194.25-8.08Q194.25-9.11 193.79-9.84 193.32-10.57 192.58-11.1 191.83-11.62 190.88-11.99 189.93-12.35 188.94-12.61 187.95-12.87 187-13.07 186.05-13.28 185.31-13.5L185.31-13.5Q183.87-13.92 182.31-14.39 180.75-14.87 179.24-15.48 177.72-16.09 176.37-16.88 175.01-17.68 173.99-18.76 172.96-19.85 172.35-21.28 171.74-22.71 171.74-24.56L171.74-24.56Q171.74-26.78 172.29-28.5 172.84-30.22 173.84-31.49 174.84-32.76 176.21-33.63 177.58-34.5 179.21-35.02 180.85-35.55 182.69-35.78 184.53-36.01 186.46-36.01L186.46-36.01Q189.1-36.01 191.26-35.52 193.42-35.03 195.25-34.13 197.08-33.23 198.61-31.97 200.13-30.71 201.48-29.17L201.48-29.17 196.5-24.12Q195.91-25.88 194.87-27.29 193.84-28.71 192.57-29.72 191.3-30.74 189.9-31.29 188.51-31.84 187.22-31.84L187.22-31.84Q185.53-31.84 184.12-31.6 182.7-31.37 181.69-30.85 180.68-30.32 180.11-29.43 179.55-28.54 179.55-27.22L179.55-27.22Q179.55-26.17 179.97-25.44 180.38-24.71 181.08-24.19 181.77-23.68 182.65-23.35 183.53-23.02 184.47-22.78 185.41-22.53 186.33-22.35 187.24-22.17 188-21.95L188-21.95Q189.47-21.53 191.08-21.07 192.69-20.61 194.25-19.98 195.81-19.36 197.23-18.55 198.64-17.75 199.72-16.64 200.79-15.53 201.43-14.07 202.06-12.62 202.06-10.74ZM217.81-24.93L217.81 0 209.53 0 209.53-24.93 204.4-24.93 204.4-28.2 209.53-28.2 209.53-38.57 217.81-38.57 217.81-28.2 226.35-28.2 226.35-24.93 217.81-24.93ZM258.72-14.16L258.72-14.16Q258.72-11.96 258.14-10.03 257.55-8.11 256.51-6.47 255.48-4.83 254.01-3.53 252.55-2.22 250.8-1.32 249.05-0.42 247.07 0.07 245.08 0.56 242.98 0.56L242.98 0.56Q240.88 0.56 238.9 0.07 236.92-0.42 235.18-1.32 233.43-2.22 231.96-3.53 230.5-4.83 229.46-6.47 228.42-8.11 227.84-10.05 227.25-11.99 227.25-14.16L227.25-14.16Q227.25-16.33 227.84-18.27 228.42-20.21 229.46-21.85 230.5-23.49 231.96-24.79 233.43-26.1 235.18-27 236.92-27.91 238.9-28.39 240.88-28.88 242.98-28.88L242.98-28.88Q245.08-28.88 247.07-28.39 249.05-27.91 250.8-27 252.55-26.1 254.01-24.79 255.48-23.49 256.51-21.85 257.55-20.21 258.14-18.27 258.72-16.33 258.72-14.16ZM250.32-14.16L250.32-14.16Q250.32-15.33 250.19-16.64 250.06-17.94 249.74-19.2 249.42-20.46 248.87-21.62 248.32-22.78 247.52-23.65 246.71-24.51 245.59-25.04 244.46-25.56 242.98-25.56L242.98-25.56Q241.56-25.56 240.46-25.02 239.36-24.49 238.54-23.6 237.73-22.71 237.18-21.53 236.63-20.36 236.29-19.1 235.94-17.85 235.8-16.56 235.65-15.28 235.65-14.16L235.65-14.16Q235.65-13.04 235.8-11.76 235.94-10.47 236.29-9.2 236.63-7.93 237.18-6.77 237.73-5.62 238.54-4.72 239.36-3.83 240.46-3.3 241.56-2.76 242.98-2.76L242.98-2.76Q244.44-2.76 245.56-3.28 246.69-3.81 247.5-4.69 248.32-5.57 248.86-6.71 249.4-7.86 249.73-9.13 250.06-10.4 250.19-11.69 250.32-12.99 250.32-14.16ZM287.9-25.71L287.9-25.71 283.26-18.02Q282.96-18.99 282.5-20.21 282.04-21.44 281.35-22.5 280.67-23.56 279.72-24.28 278.76-25 277.52-25L277.52-25Q276.37-25 275.53-24.41 274.69-23.83 274.1-22.89 273.52-21.95 273.14-20.76 272.76-19.58 272.55-18.37 272.34-17.16 272.27-16.05 272.2-14.94 272.2-14.14L272.2-14.14 272.2 0 263.92 0 263.92-28.2 267.09-28.2 270.44-21.63Q271.12-23.22 272-24.55 272.88-25.88 274.03-26.84 275.18-27.81 276.63-28.34 278.08-28.88 279.91-28.88L279.91-28.88Q280.86-28.88 282.04-28.72 283.21-28.56 284.33-28.19 285.45-27.81 286.41-27.2 287.36-26.59 287.9-25.71ZM297.39-13.38L297.39-13.38Q298.9-13.04 300.42-12.84 301.93-12.65 303.47-12.65L303.47-12.65Q305.08-12.65 306.46-12.95 307.84-13.26 308.85-13.98 309.87-14.7 310.45-15.89 311.04-17.09 311.04-18.87L311.04-18.87Q311.04-20.31 310.65-21.51 310.26-22.71 309.49-23.56 308.72-24.41 307.59-24.89 306.47-25.37 304.98-25.37L304.98-25.37Q303.59-25.37 302.48-24.85 301.37-24.34 300.53-23.47 299.68-22.61 299.09-21.46 298.49-20.31 298.1-19.07 297.71-17.82 297.54-16.55 297.37-15.28 297.37-14.16L297.37-14.16Q297.37-13.96 297.37-13.77 297.37-13.57 297.39-13.38ZM317.73-18.95L317.73-18.95Q317.73-17.21 317.17-15.86 316.6-14.5 315.64-13.48 314.67-12.45 313.41-11.74 312.14-11.04 310.7-10.58 309.25-10.13 307.73-9.94 306.2-9.74 304.76-9.74L304.76-9.74Q302.93-9.74 301.15-10 299.37-10.25 297.63-10.82L297.63-10.82Q297.9-9.2 298.49-7.75 299.07-6.3 300.05-5.21 301.03-4.13 302.46-3.49 303.88-2.86 305.84-2.86L305.84-2.86Q307.13-2.86 308.3-3.25 309.47-3.64 310.45-4.35 311.43-5.05 312.17-6.03 312.92-7.01 313.38-8.2L313.38-8.2 316.95-6.88Q316.14-4.96 314.74-3.55 313.33-2.15 311.56-1.23 309.79-0.32 307.8 0.12 305.81 0.56 303.86 0.56L303.86 0.56Q300.64 0.56 297.9-0.52 295.17-1.61 293.19-3.56 291.21-5.52 290.09-8.23 288.97-10.94 288.97-14.16L288.97-14.16Q288.97-17.38 290.09-20.09 291.21-22.8 293.19-24.76 295.17-26.71 297.9-27.8 300.64-28.88 303.86-28.88L303.86-28.88Q305.42-28.88 307.06-28.66 308.69-28.44 310.23-27.97 311.77-27.49 313.14-26.73 314.5-25.98 315.52-24.87 316.53-23.75 317.13-22.29 317.73-20.83 317.73-18.95Z" opacity="1" transform="matrix(1,0,0,1,0,0)" fill="#ffffff" class="wordmark-text-0" data-fill-palette-color="primary" id="text-0"></path></svg></g></svg></g><g transform="matrix(1,0,0,1,0,44.95234944792942)"><svg viewBox="0 0 190.41202943999997 10.85915903463687" height="10.85915903463687" width="190.41202943999997"><g transform="matrix(1,0,0,1,0,0)"><svg width="190.41202943999997" viewBox="2.56 -36.52 838.98 47.85" height="10.85915903463687" data-palette-color="#000f76"><path d="M18.19 0.61L18.19 0.61Q13.67 0.61 10.14-1.43 6.62-3.47 4.59-7.35 2.56-11.23 2.56-16.77L2.56-16.77Q2.56-22.27 4.64-26.21 6.71-30.15 10.28-32.26 13.84-34.38 18.33-34.38L18.33-34.38Q21.9-34.38 24.34-33.07 26.78-31.76 28.32-30.15L28.32-30.15 25.51-26.9Q24.24-28.2 22.57-29 20.9-29.81 18.48-29.81L18.48-29.81Q15.31-29.81 12.94-28.25 10.57-26.68 9.27-23.8 7.96-20.92 7.96-16.94L7.96-16.94Q7.96-10.89 10.71-7.41 13.45-3.93 18.7-3.93L18.7-3.93Q20.26-3.93 21.72-4.37 23.17-4.81 24.07-5.64L24.07-5.64 24.07-13.6 17.33-13.6 17.33-17.92 28.78-17.92 28.78-3.34Q27.12-1.64 24.37-0.51 21.61 0.61 18.19 0.61ZM46.53 0.61L46.53 0.61Q43.14 0.61 40.35-0.96 37.57-2.54 35.94-5.48 34.3-8.42 34.3-12.57L34.3-12.57Q34.3-16.65 35.95-19.63 37.6-22.61 40.22-24.21 42.84-25.81 45.77-25.81L45.77-25.81Q50.73-25.81 53.37-22.53 56-19.26 56-13.89L56-13.89Q56-13.13 55.94-12.43 55.88-11.72 55.78-11.23L55.78-11.23 39.35-11.23Q39.67-7.59 41.78-5.49 43.89-3.39 47.19-3.39L47.19-3.39Q48.92-3.39 50.44-3.87 51.95-4.35 53.32-5.22L53.32-5.22 55.05-2.05Q53.29-0.83 51.17-0.11 49.05 0.61 46.53 0.61ZM39.3-14.79L39.3-14.79 51.51-14.79Q51.51-18.14 50.07-19.96 48.63-21.78 45.87-21.78L45.87-21.78Q43.45-21.78 41.56-19.97 39.67-18.16 39.3-14.79ZM70.31 0.61L70.31 0.61Q66.11 0.61 64.4-1.82 62.69-4.25 62.69-8.18L62.69-8.18 62.69-21.02 59.05-21.02 59.05-24.95 62.98-25.17 63.59-33.18 67.89-33.18 67.89-25.17 74.51-25.17 74.51-21.02 67.89-21.02 67.89-8.15Q67.89-5.86 68.77-4.69 69.65-3.52 71.6-3.52L71.6-3.52Q72.24-3.52 72.93-3.64 73.63-3.76 74.31-4.05L74.31-4.05 75.31-0.42Q74.31 0 73.03 0.31 71.75 0.61 70.31 0.61ZM101.75 0L96.55 0 96.55-33.76 101.75-33.76 101.75-19.95 116.35-19.95 116.35-33.76 121.57-33.76 121.57 0 116.35 0 116.35-15.38 101.75-15.38 101.75 0ZM140.03 0.61L140.03 0.61Q136.93 0.61 134.23-0.94 131.53-2.49 129.88-5.43 128.23-8.37 128.23-12.57L128.23-12.57Q128.23-16.75 129.88-19.71 131.53-22.68 134.23-24.24 136.93-25.81 140.03-25.81L140.03-25.81Q143.18-25.81 145.87-24.24 148.57-22.68 150.23-19.71 151.89-16.75 151.89-12.57L151.89-12.57Q151.89-8.37 150.23-5.43 148.57-2.49 145.87-0.94 143.18 0.61 140.03 0.61ZM140.03-3.61L140.03-3.61Q143.03-3.61 144.81-6.07 146.59-8.52 146.59-12.57L146.59-12.57Q146.59-16.6 144.81-19.08 143.03-21.56 140.03-21.56L140.03-21.56Q137.07-21.56 135.3-19.08 133.53-16.6 133.53-12.57L133.53-12.57Q133.53-8.52 135.3-6.07 137.07-3.61 140.03-3.61ZM168.15 0.61L168.15 0.61Q165.05 0.61 162.35-0.94 159.65-2.49 158.01-5.43 156.36-8.37 156.36-12.57L156.36-12.57Q156.36-16.75 158.01-19.71 159.65-22.68 162.35-24.24 165.05-25.81 168.15-25.81L168.15-25.81Q171.3-25.81 174-24.24 176.69-22.68 178.35-19.71 180.01-16.75 180.01-12.57L180.01-12.57Q180.01-8.37 178.35-5.43 176.69-2.49 174-0.94 171.3 0.61 168.15 0.61ZM168.15-3.61L168.15-3.61Q171.15-3.61 172.93-6.07 174.72-8.52 174.72-12.57L174.72-12.57Q174.72-16.6 172.93-19.08 171.15-21.56 168.15-21.56L168.15-21.56Q165.19-21.56 163.42-19.08 161.65-16.6 161.65-12.57L161.65-12.57Q161.65-8.52 163.42-6.07 165.19-3.61 168.15-3.61ZM191.32 0L186.21 0 186.21-36.52 191.32-36.52 191.32-12.89 191.49-12.89 201.37-25.17 207.11-25.17 198.57-14.94 208.09 0 202.47 0 195.61-11.45 191.32-6.54 191.32 0ZM222.95 0.61L222.95 0.61Q219.56 0.61 216.78-0.96 213.99-2.54 212.36-5.48 210.72-8.42 210.72-12.57L210.72-12.57Q210.72-16.65 212.37-19.63 214.02-22.61 216.64-24.21 219.27-25.81 222.2-25.81L222.2-25.81Q227.15-25.81 229.79-22.53 232.43-19.26 232.43-13.89L232.43-13.89Q232.43-13.13 232.37-12.43 232.3-11.72 232.21-11.23L232.21-11.23 215.78-11.23Q216.09-7.59 218.21-5.49 220.32-3.39 223.61-3.39L223.61-3.39Q225.35-3.39 226.86-3.87 228.37-4.35 229.74-5.22L229.74-5.22 231.47-2.05Q229.72-0.83 227.59-0.11 225.47 0.61 222.95 0.61ZM215.73-14.79L215.73-14.79 227.93-14.79Q227.93-18.14 226.49-19.96 225.05-21.78 222.29-21.78L222.29-21.78Q219.88-21.78 217.99-19.97 216.09-18.16 215.73-14.79ZM247 0.61L247 0.61Q242.31 0.61 239.49-2.84 236.67-6.3 236.67-12.57L236.67-12.57Q236.67-16.65 238.2-19.63 239.72-22.61 242.18-24.21 244.63-25.81 247.44-25.81L247.44-25.81Q249.59-25.81 251.15-25.05 252.71-24.29 254.23-22.97L254.23-22.97 254.05-27.12 254.05-36.52 259.23-36.52 259.23 0 254.96 0 254.59-2.83 254.42-2.83Q252.98-1.39 251.08-0.39 249.17 0.61 247 0.61ZM248.27-3.66L248.27-3.66Q251.32-3.66 254.05-6.76L254.05-6.76 254.05-19.17Q252.61-20.43 251.22-20.98 249.83-21.53 248.46-21.53L248.46-21.53Q245.78-21.53 243.87-19.13 241.97-16.72 241.97-12.57L241.97-12.57Q241.97-8.3 243.62-5.98 245.27-3.66 248.27-3.66ZM293.31 0.61L293.31 0.61Q290.21 0.61 287.51-0.94 284.81-2.49 283.16-5.43 281.52-8.37 281.52-12.57L281.52-12.57Q281.52-16.75 283.16-19.71 284.81-22.68 287.51-24.24 290.21-25.81 293.31-25.81L293.31-25.81Q296.46-25.81 299.15-24.24 301.85-22.68 303.51-19.71 305.17-16.75 305.17-12.57L305.17-12.57Q305.17-8.37 303.51-5.43 301.85-2.49 299.15-0.94 296.46 0.61 293.31 0.61ZM293.31-3.61L293.31-3.61Q296.31-3.61 298.09-6.07 299.87-8.52 299.87-12.57L299.87-12.57Q299.87-16.6 298.09-19.08 296.31-21.56 293.31-21.56L293.31-21.56Q290.35-21.56 288.58-19.08 286.81-16.6 286.81-12.57L286.81-12.57Q286.81-8.52 288.58-6.07 290.35-3.61 293.31-3.61ZM316.55 0L311.37 0 311.37-25.17 315.64-25.17 316.06-21.7 316.18-21.7Q317.94-23.41 319.95-24.61 321.97-25.81 324.55-25.81L324.55-25.81Q328.53-25.81 330.39-23.23 332.25-20.65 332.25-15.87L332.25-15.87 332.25 0 327.09 0 327.09-15.21Q327.09-18.51 326.08-19.93 325.07-21.36 322.77-21.36L322.77-21.36Q321.04-21.36 319.65-20.46 318.26-19.56 316.55-17.87L316.55-17.87 316.55 0ZM369.28 0.61L369.28 0.61Q364.96 0.61 361.65-1.53 358.34-3.66 356.47-7.62 354.6-11.57 354.6-17.02L354.6-17.02Q354.6-22.46 356.47-26.34 358.34-30.22 361.65-32.3 364.96-34.38 369.28-34.38L369.28-34.38Q373.6-34.38 376.91-32.29 380.21-30.2 382.08-26.31 383.95-22.41 383.95-17.02L383.95-17.02Q383.95-11.57 382.08-7.62 380.21-3.66 376.91-1.53 373.6 0.61 369.28 0.61ZM369.28-3.93L369.28-3.93Q372.11-3.93 374.2-5.54 376.28-7.15 377.44-10.08 378.6-13.01 378.6-17.02L378.6-17.02Q378.6-22.97 376.06-26.39 373.52-29.81 369.28-29.81L369.28-29.81Q365.08-29.81 362.54-26.39 360-22.97 360-17.02L360-17.02Q360-13.01 361.15-10.08 362.29-7.15 364.38-5.54 366.47-3.93 369.28-3.93ZM397.89 0.61L397.89 0.61Q393.88 0.61 392.03-1.95 390.17-4.52 390.17-9.3L390.17-9.3 390.17-25.17 395.32-25.17 395.32-9.96Q395.32-6.69 396.35-5.26 397.37-3.83 399.65-3.83L399.65-3.83Q401.4-3.83 402.77-4.74 404.14-5.64 405.75-7.67L405.75-7.67 405.75-25.17 410.9-25.17 410.9 0 406.65 0 406.26-3.81 406.07-3.81Q404.38-1.81 402.43-0.6 400.48 0.61 397.89 0.61ZM424.01 0L418.83 0 418.83-25.17 423.1-25.17 423.52-20.68 423.64-20.68Q424.98-23.1 426.86-24.45 428.74-25.81 430.82-25.81L430.82-25.81Q432.46-25.81 433.6-25.29L433.6-25.29 432.5-20.87Q431.92-21.04 431.42-21.12 430.92-21.19 430.14-21.19L430.14-21.19Q428.6-21.19 426.9-19.97 425.2-18.75 424.01-15.72L424.01-15.72 424.01 0ZM467.8 0.61L467.8 0.61Q463.29 0.61 459.76-1.43 456.23-3.47 454.2-7.35 452.18-11.23 452.18-16.77L452.18-16.77Q452.18-22.27 454.25-26.21 456.33-30.15 459.89-32.26 463.46-34.38 467.95-34.38L467.95-34.38Q471.51-34.38 473.95-33.07 476.4-31.76 477.93-30.15L477.93-30.15 475.13-26.9Q473.86-28.2 472.18-29 470.51-29.81 468.09-29.81L468.09-29.81Q464.92-29.81 462.55-28.25 460.18-26.68 458.88-23.8 457.57-20.92 457.57-16.94L457.57-16.94Q457.57-10.89 460.32-7.41 463.07-3.93 468.31-3.93L468.31-3.93Q469.88-3.93 471.33-4.37 472.78-4.81 473.69-5.64L473.69-5.64 473.69-13.6 466.95-13.6 466.95-17.92 478.4-17.92 478.4-3.34Q476.74-1.64 473.98-0.51 471.22 0.61 467.8 0.61ZM491.65 0.61L491.65 0.61Q488.38 0.61 486.29-1.34 484.21-3.3 484.21-6.64L484.21-6.64Q484.21-10.72 487.82-12.94 491.43-15.16 499.34-16.04L499.34-16.04Q499.32-17.5 498.87-18.77 498.41-20.04 497.36-20.84 496.31-21.63 494.46-21.63L494.46-21.63Q492.43-21.63 490.6-20.86 488.77-20.09 487.16-19.14L487.16-19.14 485.26-22.51Q487.16-23.78 489.76-24.79 492.36-25.81 495.39-25.81L495.39-25.81Q500.05-25.81 502.27-22.99 504.49-20.17 504.49-15.14L504.49-15.14 504.49 0 500.22 0 499.85-2.88 499.68-2.88Q497.93-1.42 495.91-0.4 493.9 0.61 491.65 0.61ZM493.21-3.47L493.21-3.47Q494.87-3.47 496.3-4.24 497.73-5 499.34-6.45L499.34-6.45 499.34-12.74Q493.65-12.04 491.43-10.61 489.21-9.18 489.21-7.06L489.21-7.06Q489.21-5.15 490.36-4.31 491.51-3.47 493.21-3.47ZM517.11 0L511.94 0 511.94-25.17 516.21-25.17 516.62-21.63 516.75-21.63Q518.38-23.39 520.3-24.6 522.22-25.81 524.56-25.81L524.56-25.81Q527.37-25.81 529.01-24.56 530.66-23.32 531.47-21.17L531.47-21.17Q533.35-23.17 535.35-24.49 537.35-25.81 539.67-25.81L539.67-25.81Q543.6-25.81 545.51-23.23 547.41-20.65 547.41-15.87L547.41-15.87 547.41 0 542.26 0 542.26-15.21Q542.26-18.51 541.22-19.93 540.18-21.36 538.01-21.36L538.01-21.36Q535.45-21.36 532.27-17.87L532.27-17.87 532.27 0 527.07 0 527.07-15.21Q527.07-18.51 526.05-19.93 525.02-21.36 522.85-21.36L522.85-21.36Q520.26-21.36 517.11-17.87L517.11-17.87 517.11 0ZM560.2 0L555.03 0 555.03-25.17 560.2-25.17 560.2 0ZM557.66-29.93L557.66-29.93Q556.22-29.93 555.34-30.8 554.46-31.67 554.46-33.08L554.46-33.08Q554.46-34.45 555.34-35.29 556.22-36.13 557.66-36.13L557.66-36.13Q559.1-36.13 559.98-35.29 560.86-34.45 560.86-33.08L560.86-33.08Q560.86-31.67 559.98-30.8 559.1-29.93 557.66-29.93ZM573.33 0L568.16 0 568.16-25.17 572.43-25.17 572.85-21.7 572.97-21.7Q574.73-23.41 576.74-24.61 578.75-25.81 581.34-25.81L581.34-25.81Q585.32-25.81 587.18-23.23 589.03-20.65 589.03-15.87L589.03-15.87 589.03 0 583.88 0 583.88-15.21Q583.88-18.51 582.87-19.93 581.85-21.36 579.56-21.36L579.56-21.36Q577.83-21.36 576.43-20.46 575.04-19.56 573.33-17.87L573.33-17.87 573.33 0ZM605.34 11.33L605.34 11.33Q600.75 11.33 597.82 9.66 594.89 7.98 594.89 4.69L594.89 4.69Q594.89 3.05 595.84 1.66 596.79 0.27 598.5-0.83L598.5-0.83 598.5-1.05Q597.55-1.64 596.92-2.66 596.28-3.69 596.28-5.2L596.28-5.2Q596.28-6.71 597.15-7.95 598.01-9.18 599.04-9.89L599.04-9.89 599.04-10.11Q597.75-11.06 596.76-12.78 595.77-14.5 595.77-16.75L595.77-16.75Q595.77-19.6 597.11-21.63 598.45-23.66 600.66-24.73 602.87-25.81 605.48-25.81L605.48-25.81Q606.53-25.81 607.46-25.62 608.39-25.44 609.12-25.17L609.12-25.17 618.06-25.17 618.06-21.31 613.2-21.31Q613.91-20.51 614.41-19.29 614.91-18.07 614.91-16.65L614.91-16.65Q614.91-13.89 613.65-11.95 612.39-10.01 610.26-9 608.12-7.98 605.48-7.98L605.48-7.98Q604.63-7.98 603.7-8.17 602.77-8.35 601.94-8.72L601.94-8.72Q601.31-8.2 600.92-7.59 600.53-6.98 600.53-6.08L600.53-6.08Q600.53-4.93 601.44-4.26 602.36-3.59 604.78-3.59L604.78-3.59 609.44-3.59Q613.91-3.59 616.19-2.12 618.47-0.66 618.47 2.54L618.47 2.54Q618.47 4.96 616.85 6.95 615.23 8.94 612.28 10.13 609.34 11.33 605.34 11.33ZM605.48-11.28L605.48-11.28Q607.46-11.28 608.89-12.74 610.32-14.21 610.32-16.75L610.32-16.75Q610.32-19.34 608.9-20.75 607.49-22.17 605.48-22.17L605.48-22.17Q603.46-22.17 602.07-20.75 600.67-19.34 600.67-16.75L600.67-16.75Q600.67-14.21 602.09-12.74 603.51-11.28 605.48-11.28ZM606.09 7.89L606.09 7.89Q609.39 7.89 611.4 6.51 613.42 5.13 613.42 3.34L613.42 3.34Q613.42 1.73 612.23 1.15 611.05 0.56 608.73 0.56L608.73 0.56 604.87 0.56Q602.95 0.56 601.5 0.2L601.5 0.2Q600.33 1.03 599.82 1.99 599.31 2.95 599.31 3.93L599.31 3.93Q599.31 5.79 601.11 6.84 602.92 7.89 606.09 7.89ZM644.88 0L639.68 0 639.68-33.76 659.63-33.76 659.63-29.37 644.88-29.37 644.88-18.95 657.43-18.95 657.43-14.53 644.88-14.53 644.88 0ZM671.1 0.61L671.1 0.61Q667.83 0.61 665.74-1.34 663.66-3.3 663.66-6.64L663.66-6.64Q663.66-10.72 667.27-12.94 670.88-15.16 678.79-16.04L678.79-16.04Q678.77-17.5 678.32-18.77 677.86-20.04 676.81-20.84 675.77-21.63 673.91-21.63L673.91-21.63Q671.88-21.63 670.05-20.86 668.22-20.09 666.61-19.14L666.61-19.14 664.71-22.51Q666.61-23.78 669.21-24.79 671.81-25.81 674.84-25.81L674.84-25.81Q679.5-25.81 681.72-22.99 683.94-20.17 683.94-15.14L683.94-15.14 683.94 0 679.67 0 679.31-2.88 679.13-2.88Q677.38-1.42 675.36-0.4 673.35 0.61 671.1 0.61ZM672.66-3.47L672.66-3.47Q674.32-3.47 675.75-4.24 677.18-5 678.79-6.45L678.79-6.45 678.79-12.74Q673.1-12.04 670.88-10.61 668.66-9.18 668.66-7.06L668.66-7.06Q668.66-5.15 669.81-4.31 670.96-3.47 672.66-3.47ZM696.56 0L691.39 0 691.39-25.17 695.66-25.17 696.08-21.7 696.2-21.7Q697.95-23.41 699.97-24.61 701.98-25.81 704.57-25.81L704.57-25.81Q708.55-25.81 710.41-23.23 712.26-20.65 712.26-15.87L712.26-15.87 712.26 0 707.11 0 707.11-15.21Q707.11-18.51 706.1-19.93 705.08-21.36 702.79-21.36L702.79-21.36Q701.06-21.36 699.66-20.46 698.27-19.56 696.56-17.87L696.56-17.87 696.56 0ZM728.32 0.61L728.32 0.61Q724.12 0.61 722.42-1.82 720.71-4.25 720.71-8.18L720.71-8.18 720.71-21.02 717.07-21.02 717.07-24.95 721-25.17 721.61-33.18 725.91-33.18 725.91-25.17 732.52-25.17 732.52-21.02 725.91-21.02 725.91-8.15Q725.91-5.86 726.79-4.69 727.66-3.52 729.62-3.52L729.62-3.52Q730.25-3.52 730.95-3.64 731.64-3.76 732.33-4.05L732.33-4.05 733.33-0.42Q732.33 0 731.05 0.31 729.76 0.61 728.32 0.61ZM743.97 0.61L743.97 0.61Q740.7 0.61 738.61-1.34 736.52-3.3 736.52-6.64L736.52-6.64Q736.52-10.72 740.14-12.94 743.75-15.16 751.66-16.04L751.66-16.04Q751.64-17.5 751.18-18.77 750.73-20.04 749.68-20.84 748.63-21.63 746.78-21.63L746.78-21.63Q744.75-21.63 742.92-20.86 741.09-20.09 739.48-19.14L739.48-19.14 737.57-22.51Q739.48-23.78 742.08-24.79 744.68-25.81 747.71-25.81L747.71-25.81Q752.37-25.81 754.59-22.99 756.81-20.17 756.81-15.14L756.81-15.14 756.81 0 752.54 0 752.17-2.88 752-2.88Q750.24-1.42 748.23-0.4 746.22 0.61 743.97 0.61ZM745.53-3.47L745.53-3.47Q747.19-3.47 748.62-4.24 750.05-5 751.66-6.45L751.66-6.45 751.66-12.74Q745.97-12.04 743.75-10.61 741.53-9.18 741.53-7.06L741.53-7.06Q741.53-5.15 742.68-4.31 743.82-3.47 745.53-3.47ZM771.09 0.61L771.09 0.61Q768.41 0.61 765.92-0.34 763.43-1.29 761.64-3.03L761.64-3.03 763.96-5.98Q765.6-4.66 767.37-3.99 769.14-3.32 771.26-3.32L771.26-3.32Q773.48-3.32 774.6-4.31 775.71-5.3 775.71-6.76L775.71-6.76Q775.71-7.91 774.92-8.68 774.14-9.45 772.9-10.01 771.65-10.57 770.24-11.08L770.24-11.08Q768.38-11.74 766.75-12.68 765.11-13.62 764.09-15.03 763.06-16.43 763.06-18.46L763.06-18.46Q763.06-21.61 765.42-23.71 767.77-25.81 771.97-25.81L771.97-25.81Q774.46-25.81 776.52-24.96 778.59-24.12 780.1-22.85L780.1-22.85 777.83-19.9Q775.1-21.85 772.09-21.85L772.09-21.85Q769.94-21.85 768.96-20.91 767.97-19.97 767.97-18.7L767.97-18.7Q767.97-17.16 769.36-16.36 770.75-15.55 773.07-14.7L773.07-14.7Q775.02-14.04 776.76-13.11 778.49-12.18 779.55-10.73 780.61-9.28 780.61-7.03L780.61-7.03Q780.61-3.86 778.17-1.62 775.73 0.61 771.09 0.61ZM791.38 0L786.2 0 786.2-25.17 791.38-25.17 791.38 0ZM788.84-29.93L788.84-29.93Q787.4-29.93 786.52-30.8 785.64-31.67 785.64-33.08L785.64-33.08Q785.64-34.45 786.52-35.29 787.4-36.13 788.84-36.13L788.84-36.13Q790.28-36.13 791.16-35.29 792.04-34.45 792.04-33.08L792.04-33.08Q792.04-31.67 791.16-30.8 790.28-29.93 788.84-29.93ZM809.83 0.61L809.83 0.61Q806.44 0.61 803.66-0.96 800.87-2.54 799.24-5.48 797.6-8.42 797.6-12.57L797.6-12.57Q797.6-16.65 799.25-19.63 800.9-22.61 803.52-24.21 806.15-25.81 809.08-25.81L809.08-25.81Q814.03-25.81 816.67-22.53 819.3-19.26 819.3-13.89L819.3-13.89Q819.3-13.13 819.24-12.43 819.18-11.72 819.09-11.23L819.09-11.23 802.65-11.23Q802.97-7.59 805.08-5.49 807.2-3.39 810.49-3.39L810.49-3.39Q812.22-3.39 813.74-3.87 815.25-4.35 816.62-5.22L816.62-5.22 818.35-2.05Q816.59-0.83 814.47-0.11 812.35 0.61 809.83 0.61ZM802.61-14.79L802.61-14.79 814.81-14.79Q814.81-18.14 813.37-19.96 811.93-21.78 809.17-21.78L809.17-21.78Q806.76-21.78 804.86-19.97 802.97-18.16 802.61-14.79ZM832.02 0.61L832.02 0.61Q829.34 0.61 826.85-0.34 824.36-1.29 822.57-3.03L822.57-3.03 824.89-5.98Q826.53-4.66 828.3-3.99 830.07-3.32 832.19-3.32L832.19-3.32Q834.41-3.32 835.53-4.31 836.64-5.3 836.64-6.76L836.64-6.76Q836.64-7.91 835.85-8.68 835.07-9.45 833.83-10.01 832.58-10.57 831.17-11.08L831.17-11.08Q829.31-11.74 827.68-12.68 826.04-13.62 825.02-15.03 823.99-16.43 823.99-18.46L823.99-18.46Q823.99-21.61 826.35-23.71 828.7-25.81 832.9-25.81L832.9-25.81Q835.39-25.81 837.45-24.96 839.52-24.12 841.03-22.85L841.03-22.85 838.76-19.9Q836.03-21.85 833.02-21.85L833.02-21.85Q830.87-21.85 829.89-20.91 828.9-19.97 828.9-18.7L828.9-18.7Q828.9-17.16 830.29-16.36 831.68-15.55 834-14.7L834-14.7Q835.95-14.04 837.69-13.11 839.42-12.18 840.48-10.73 841.54-9.28 841.54-7.03L841.54-7.03Q841.54-3.86 839.1-1.62 836.66 0.61 832.02 0.61Z" opacity="1" transform="matrix(1,0,0,1,0,0)" fill="#ffffff" class="slogan-text-1" data-fill-palette-color="secondary" id="text-1"></path></svg></g></svg></g></svg></g></svg></g><g><svg viewBox="0 0 201.91245159859196 185.75945547070458" height="185.75945547070458" width="201.91245159859196"><g><svg xmlns:x="http://ns.adobe.com/Extensibility/1.0/" xmlns:i="http://ns.adobe.com/AdobeIllustrator/10.0/" xmlns:graph="http://ns.adobe.com/Graphs/1.0/" xmlns="http://www.w3.org/2000/svg" xmlns:xlink="http://www.w3.org/1999/xlink" version="1.1" x="0" y="0" viewBox="7 9 50 46" enable-background="new 0 0 64 64" xml:space="preserve" height="185.75945547070458" width="201.91245159859196" class="icon-icon-0" data-fill-palette-color="accent" id="icon-0"><g fill="#185bcb" data-fill-palette-color="accent"><path d="M46 25H33V16C33 13.243 35.243 11 38 11S43 13.243 43 16 45.243 21 48 21 53 18.757 53 16A1 1 0 1 0 51 16C51 17.654 49.654 19 48 19S45 17.654 45 16C45 12.14 41.859 9 38 9S31 12.14 31 16V25H18C11.935 25 7 29.935 7 36 7 48.607 9.355 55 14 55 20.692 55 22.101 50.747 23.464 46.634 23.861 45.435 24.271 44.199 24.814 43H39.187C39.73 44.199 40.139 45.435 40.537 46.634 41.898 50.747 43.308 55 50 55 54.645 55 57 48.607 57 36 57 29.935 52.065 25 46 25M22 37H19V40A1 1 0 1 1 17 40V37H14A1 1 0 1 1 14 35H17V32A1 1 0 0 1 19 32V35H22A1 1 0 1 1 22 37M30 39H26A1 1 0 1 1 26 37H30A1 1 0 1 1 30 39M38 39H34A1 1 0 1 1 34 37H38A1 1 0 1 1 38 39M46 30A2 2 0 1 1 45.999 34.001 2 2 0 0 1 46 30M42 38A2 2 0 1 1 42.001 33.999 2 2 0 0 1 42 38M46 42A2 2 0 1 1 46.001 37.999 2 2 0 0 1 46 42M50 38A2 2 0 1 1 50.001 33.999 2 2 0 0 1 50 38" fill="#ffffff" data-fill-palette-color="accent"></path></g></svg><g></g></g></svg></g></svg></g></svg></g><g><path d="M0 123.6c0-68.262 55.338-123.6 123.6-123.6 49.686 0 92.525 29.317 112.161 71.597h-0.922c-19.577-41.805-62.027-70.763-111.239-70.762-67.801 0-122.765 54.964-122.765 122.765 0 67.801 54.964 122.765 122.765 122.765 49.213 0 91.662-28.957 111.239-70.762h0.922c-19.636 42.28-62.475 71.597-112.161 71.597-68.262 0-123.6-55.338-123.6-123.6z" fill="#ffffff" stroke="transparent" data-fill-palette-color="tertiary"></path></g></svg></g><defs></defs></svg><rect width="395.52" height="247.2" fill="none" stroke="none" visibility="hidden"></rect></g></svg></g></svg>